<?xml version="1.0" encoding="UTF-8" standalone="no"?>
<svg
   version="1.1"
   x="0px"
   y="0px"
   viewBox="0 0 512 511"
   xml:space="preserve"
   id="svg104"
   sodipodi:docname="noun-audio-2379560.svg"
   width="512"
   height="511"
   inkscape:version="1.2.2 (b0a84865, 2022-12-01)"
   xmlns:inkscape="http://www.inkscape.org/namespaces/inkscape"
   xmlns:sodipodi="http://sodipodi.sourceforge.net/DTD/sodipodi-0.dtd"
   xmlns="http://www.w3.org/2000/svg"
   xmlns:svg="http://www.w3.org/2000/svg"><defs
     id="defs108" /><sodipodi:namedview
     id="namedview106"
     pagecolor="#ffffff"
     bordercolor="#000000"
     borderopacity="0.25"
     inkscape:showpageshadow="2"
     inkscape:pageopacity="0.0"
     inkscape:pagecheckerboard="0"
     inkscape:deskcolor="#d1d1d1"
     showgrid="false"
     inkscape:zoom="0.91100744"
     inkscape:cx="43.907435"
     inkscape:cy="338.08725"
     inkscape:window-width="1985"
     inkscape:window-height="880"
     inkscape:window-x="0"
     inkscape:window-y="25"
     inkscape:window-maximized="0"
     inkscape:current-layer="svg104" /><g
     id="g98"><g
       id="g96"><g
         id="g82"><g
           id="g4" /><g
           id="g8" /><g
           id="g12" /><g
           id="g16" /><g
           id="g20" /><g
           id="g24" /><g
           id="g28" /><g
           id="g32" /><g
           id="g36" /><g
           id="g40" /><g
           id="g44" /><g
           id="g48" /><g
           id="g52" /><g
           id="g56" /><g
           id="g60" /><g
           id="g64" /><g
           id="g68" /><g
           id="g72" /><g
           id="g76" /><g
           id="g80" /></g><path
         id="rect94"
         d="m 71,181 h 20 v 20 H 71 Z m 100,0 h 20 v 20 h -20 z m -50,70 h 20 v 20 h -20 z m 200,-70 h 20 v 20 h -20 z m 100,0 h 20 v 20 h -20 z m -50,70 h 20 v 20 H 371 Z M 101,413 c -0.821,0 -1.591,-0.51 -1.883,-1.327 l -50,-140 c -0.372,-1.04 0.17,-2.185 1.21,-2.556 1.042,-0.373 2.185,0.17 2.556,1.21 l 50,140 c 0.372,1.04 -0.17,2.185 -1.21,2.556 -0.223,0.08 -0.45,0.117 -0.673,0.117 z m 310,0 c -0.224,0 -0.45,-0.037 -0.673,-0.117 -1.04,-0.371 -1.582,-1.516 -1.211,-2.556 l 50,-140 c 0.372,-1.04 1.517,-1.581 2.557,-1.21 1.04,0.371 1.582,1.516 1.211,2.556 l -50,140 C 412.592,412.49 411.821,413 411,413 Z M 161.002,403 c -0.646,0 -1.281,-0.313 -1.666,-0.891 -0.613,-0.919 -0.364,-2.16 0.555,-2.773 l 60,-40 c 0.919,-0.615 2.161,-0.363 2.773,0.555 0.613,0.919 0.364,2.16 -0.555,2.773 l -60,40 c -0.34,0.228 -0.726,0.336 -1.107,0.336 z m 189.996,0 c -0.381,0 -0.767,-0.108 -1.107,-0.336 l -60,-40 c -0.919,-0.613 -1.167,-1.854 -0.555,-2.773 0.612,-0.918 1.854,-1.17 2.773,-0.555 l 60,40 c 0.919,0.613 1.167,1.854 0.555,2.773 -0.386,0.579 -1.019,0.891 -1.666,0.891 z M 131,443 c -17.645,0 -32,-14.355 -32,-32 0,-17.645 14.355,-32 32,-32 17.645,0 32,14.355 32,32 0,17.645 -14.355,32 -32,32 z m 0,-60 c -15.439,0 -28,12.561 -28,28 0,15.439 12.561,28 28,28 15.439,0 28,-12.561 28,-28 0,-15.439 -12.561,-28 -28,-28 z m 250,60 c -17.645,0 -32,-14.355 -32,-32 0,-17.645 14.355,-32 32,-32 17.645,0 32,14.355 32,32 0,17.645 -14.355,32 -32,32 z m 0,-60 c -15.439,0 -28,12.561 -28,28 0,15.439 12.561,28 28,28 15.439,0 28,-12.561 28,-28 0,-15.439 -12.561,-28 -28,-28 z m 80,100 H 41 c -1.104,0 -2,-0.896 -2,-2 0,-1.104 0.896,-2 2,-2 h 420 c 1.104,0 2,0.896 2,2 0,1.104 -0.896,2 -2,2 z M 461,33 H 41 c -1.104,0 -2,-0.896 -2,-2 0,-1.104 0.896,-2 2,-2 h 420 c 1.104,0 2,0.896 2,2 0,1.104 -0.896,2 -2,2 z M 291,363 h -70 c -1.104,0 -2,-0.896 -2,-2 v -50 c 0,-1.104 0.896,-2 2,-2 h 70 c 1.104,0 2,0.896 2,2 v 50 c 0,1.104 -0.896,2 -2,2 z m -68,-4 h 66 V 313 H 223 Z M 351,83 H 171 c -1.104,0 -2,-0.896 -2,-2 V 31 c 0,-1.104 0.896,-2 2,-2 h 180 c 1.104,0 2,0.896 2,2 v 50 c 0,1.104 -0.896,2 -2,2 z M 173,79 H 349 V 33 H 173 Z M 71.001,253 c -0.608,0 -1.208,-0.276 -1.602,-0.8 -0.663,-0.884 -0.483,-2.138 0.4,-2.8 l 40,-30 c 0.884,-0.661 2.138,-0.483 2.8,0.4 0.663,0.884 0.483,2.138 -0.4,2.8 l -40,30 c -0.359,0.27 -0.78,0.4 -1.198,0.4 z m 119.998,0 c -0.417,0 -0.839,-0.13 -1.199,-0.4 l -40,-30 c -0.883,-0.663 -1.063,-1.917 -0.4,-2.8 0.663,-0.883 1.917,-1.061 2.8,-0.4 l 40,30 c 0.883,0.663 1.063,1.917 0.4,2.8 -0.393,0.524 -0.994,0.8 -1.601,0.8 z M 131,193 c -1.104,0 -2,-0.896 -2,-2 v -50 c 0,-1.104 0.896,-2 2,-2 1.104,0 2,0.896 2,2 v 50 c 0,1.104 -0.896,2 -2,2 z m 0,40 c -12.131,0 -22,-9.869 -22,-22 0,-12.131 9.869,-22 22,-22 12.131,0 22,9.869 22,22 0,12.131 -9.869,22 -22,22 z m 0,-40 c -9.925,0 -18,8.075 -18,18 0,9.925 8.075,18 18,18 9.925,0 18,-8.075 18,-18 0,-9.925 -8.075,-18 -18,-18 z m 0,120 C 74.757,313 29,267.243 29,211 29,154.757 74.757,109 131,109 c 9.777,0 19.447,1.381 28.741,4.105 1.06,0.311 1.667,1.422 1.357,2.482 -0.312,1.06 -1.425,1.665 -2.482,1.357 C 149.687,114.327 140.396,113 131,113 c -54.038,0 -98,43.962 -98,98 0,54.037 43.962,98 98,98 54.038,0 98,-43.963 98,-98 0,-22.539 -7.438,-43.726 -21.511,-61.271 -0.691,-0.862 -0.553,-2.121 0.309,-2.812 0.861,-0.69 2.121,-0.553 2.812,0.309 14.438,18.002 22.39,40.65 22.39,63.774 0,56.243 -45.757,102 -102,102 z m 56.093,-182.797 c -0.386,0 -0.777,-0.112 -1.121,-0.345 l -0.815,-0.547 c -0.92,-0.611 -1.17,-1.853 -0.559,-2.773 0.611,-0.92 1.85,-1.171 2.773,-0.559 l 0.847,0.569 c 0.914,0.62 1.152,1.864 0.532,2.778 -0.387,0.57 -1.016,0.877 -1.657,0.877 z M 321.002,253 c -0.608,0 -1.209,-0.276 -1.602,-0.8 -0.663,-0.884 -0.484,-2.138 0.399,-2.8 l 40,-30 c 0.887,-0.663 2.139,-0.483 2.8,0.4 0.663,0.884 0.484,2.138 -0.399,2.8 l -40,30 c -0.36,0.27 -0.781,0.4 -1.198,0.4 z m 119.996,0 c -0.417,0 -0.838,-0.13 -1.198,-0.4 l -40,-30 c -0.884,-0.663 -1.063,-1.917 -0.399,-2.8 0.662,-0.882 1.915,-1.063 2.8,-0.4 l 40,30 c 0.884,0.663 1.063,1.917 0.399,2.8 -0.393,0.524 -0.994,0.8 -1.602,0.8 z M 381,193 c -1.104,0 -2,-0.896 -2,-2 v -50 c 0,-1.104 0.896,-2 2,-2 1.104,0 2,0.896 2,2 v 50 c 0,1.104 -0.896,2 -2,2 z m 0,40 c -12.131,0 -22,-9.869 -22,-22 0,-12.131 9.869,-22 22,-22 12.131,0 22,9.869 22,22 0,12.131 -9.869,22 -22,22 z m 0,-40 c -9.925,0 -18,8.075 -18,18 0,9.925 8.075,18 18,18 9.925,0 18,-8.075 18,-18 0,-9.925 -8.075,-18 -18,-18 z m 0,120 c -56.243,0 -102,-45.757 -102,-102 0,-56.243 45.757,-102 102,-102 9.776,0 19.446,1.381 28.742,4.105 1.06,0.311 1.667,1.422 1.356,2.482 -0.31,1.06 -1.425,1.666 -2.481,1.357 C 399.688,114.327 390.396,113 381,113 c -54.037,0 -98,43.962 -98,98 0,54.037 43.963,98 98,98 54.037,0 98,-43.963 98,-98 -10e-4,-22.54 -7.439,-43.727 -21.512,-61.271 -0.69,-0.862 -0.553,-2.121 0.31,-2.812 0.86,-0.69 2.119,-0.554 2.812,0.309 C 475.048,165.227 483,187.876 483.001,211 483,267.243 437.243,313 381,313 Z m 56.093,-182.797 c -0.388,0 -0.779,-0.112 -1.124,-0.347 -0.269,-0.183 -0.539,-0.365 -0.811,-0.544 -0.921,-0.611 -1.172,-1.852 -0.562,-2.772 0.609,-0.921 1.853,-1.171 2.772,-0.562 0.285,0.189 0.569,0.38 0.852,0.572 0.913,0.622 1.148,1.866 0.527,2.779 -0.386,0.568 -1.015,0.874 -1.654,0.874 z" /></g></g></svg>
